<?xml version="1.0" standalone="no"?>
<!DOCTYPE svg PUBLIC "-//W3C//DTD SVG 20010904//EN"
 "http://www.w3.org/TR/2001/REC-SVG-20010904/DTD/svg10.dtd">
<svg version="1.0" xmlns="http://www.w3.org/2000/svg"
 width="912.000000pt" height="309.000000pt" viewBox="0 0 912.000000 309.000000"
 preserveAspectRatio="xMidYMid meet">

<g transform="translate(0.000000,309.000000) scale(0.100000,-0.100000)"
fill="#000000" stroke="none">
<path d="M2780 2355 l0 -595 145 0 145 0 0 301 c0 201 4 308 11 322 18 35 51
57 89 57 78 0 80 -8 80 -369 l0 -311 146 0 145 0 -3 353 c-3 343 -4 353 -26
402 -31 68 -66 101 -129 125 -94 35 -234 18 -294 -36 -19 -17 -19 -13 -19 164
l0 182 -145 0 -145 0 0 -595z"/>
<path d="M190 2330 l0 -570 145 0 145 0 0 190 0 190 93 0 c207 0 352 71 416
203 56 113 63 229 20 344 -39 101 -151 180 -289 202 -36 6 -170 11 -297 11
l-233 0 0 -570z m445 329 c68 -17 89 -47 93 -132 3 -62 1 -76 -18 -100 -32
-40 -68 -55 -153 -63 l-77 -7 0 157 0 156 56 0 c30 0 75 -5 99 -11z"/>
<path d="M1360 2645 c-214 -60 -320 -223 -320 -490 0 -264 97 -403 291 -421
90 -9 167 14 224 67 l43 40 7 -41 7 -40 120 0 121 0 -6 68 c-4 37 -7 223 -7
415 l0 347 -27 11 c-132 51 -351 72 -453 44z m168 -191 c22 -6 22 -6 22 -231
l0 -225 -29 -29 c-23 -23 -38 -29 -71 -29 -23 0 -50 5 -62 11 -72 38 -89 309
-27 430 32 64 96 92 167 73z"/>
<path d="M2227 2641 c-187 -62 -286 -219 -287 -453 0 -265 117 -418 345 -451
125 -18 272 13 373 79 l23 15 -46 87 c-26 48 -50 90 -54 94 -3 4 -33 -6 -65
-22 -109 -55 -210 -36 -260 50 -25 42 -35 210 -17 277 34 124 152 154 244 62
22 -21 42 -39 44 -39 4 0 78 62 161 135 21 19 -66 108 -144 146 -57 28 -77 33
-162 36 -76 2 -110 -1 -155 -16z"/>
<path d="M3960 2642 c-188 -49 -291 -188 -315 -427 -8 -85 8 -216 37 -294 30
-81 104 -152 184 -174 119 -33 227 -14 295 54 21 21 41 39 43 39 3 0 6 -17 8
-37 l3 -38 124 -3 123 -3 -7 33 c-3 18 -9 207 -12 420 l-5 386 -76 21 c-171
46 -288 53 -402 23z m178 -188 c22 -6 22 -7 22 -221 0 -267 -9 -293 -108 -293
-91 0 -127 80 -120 265 4 96 8 120 31 166 14 30 39 62 54 71 28 18 80 23 121
12z"/>
<path d="M4959 2645 c-25 -8 -65 -33 -89 -55 -24 -22 -44 -40 -46 -40 -1 0 -5
20 -8 45 l-7 45 -121 0 -120 0 7 -27 c4 -16 10 -214 12 -440 l5 -413 144 0
144 0 0 309 0 309 26 31 c32 39 90 43 120 10 18 -20 19 -43 22 -340 l3 -319
144 0 145 0 0 309 0 309 26 31 c32 39 90 43 120 10 18 -20 19 -43 22 -340 l3
-319 145 0 146 0 -4 348 c-5 391 -8 412 -78 482 -93 93 -293 94 -390 1 l-39
-37 -38 38 c-62 64 -186 86 -294 53z"/>
<path d="M6223 2645 c-223 -63 -334 -246 -320 -529 9 -189 61 -294 172 -351
53 -27 68 -30 149 -30 102 1 136 13 198 73 l37 35 7 -41 7 -42 121 0 122 0 -7
58 c-4 31 -8 218 -8 415 l-1 357 -27 11 c-131 50 -352 72 -450 44z m165 -191
c22 -6 22 -7 22 -229 l0 -223 -26 -31 c-22 -27 -32 -31 -74 -31 -80 0 -110 45
-125 185 -8 79 9 205 35 255 33 65 96 93 168 74z"/>
<path d="M7229 2651 c-44 -14 -73 -32 -110 -68 -40 -38 -38 -39 -53 30 l-6 27
-116 0 -116 0 6 -47 c4 -27 9 -225 12 -440 l6 -393 139 0 139 0 0 288 c0 301
6 351 43 377 30 21 83 19 107 -5 19 -19 20 -33 20 -340 l0 -320 145 0 145 0 0
295 c0 314 5 351 48 374 28 15 74 14 97 -3 27 -20 33 -89 34 -393 l1 -273 141
0 140 0 -3 358 c-4 406 -4 411 -85 481 -53 47 -118 65 -212 59 -75 -6 -120
-25 -172 -74 l-35 -34 -22 30 c-37 49 -95 73 -187 76 -44 2 -92 0 -106 -5z"/>
<path d="M8485 2646 c-162 -39 -265 -146 -310 -321 -20 -77 -20 -262 0 -338
19 -74 56 -145 92 -179 103 -98 312 -102 406 -7 22 21 40 39 42 39 1 0 5 -18
9 -40 l6 -40 121 0 121 0 -6 48 c-4 26 -9 214 -12 418 l-6 372 -71 20 c-149
43 -289 53 -392 28z m163 -192 c22 -6 22 -6 22 -231 l0 -225 -29 -29 c-24 -23
-38 -29 -73 -29 -56 0 -82 19 -105 77 -25 66 -25 256 0 329 17 48 55 95 87
107 21 8 71 8 98 1z"/>
<path d="M6070 375 l0 -225 50 0 50 0 0 85 0 84 108 3 107 3 3 43 3 42 -110 0
-111 0 0 50 0 50 120 0 120 0 0 45 0 45 -170 0 -170 0 0 -225z"/>
<path d="M6684 563 c-9 -21 -50 -117 -91 -213 -41 -96 -77 -181 -80 -188 -4
-9 9 -12 45 -12 l49 0 21 50 21 51 97 -3 96 -3 18 -45 c17 -44 18 -45 69 -48
28 -2 51 -1 51 1 0 3 -42 103 -93 223 l-93 219 -47 3 c-47 3 -48 2 -63 -35z
m90 -152 c14 -36 26 -66 26 -68 0 -2 -25 -3 -55 -3 -30 0 -55 2 -55 5 0 9 53
136 55 133 2 -2 15 -32 29 -67z"/>
<path d="M7150 376 l0 -226 50 0 50 0 0 70 0 70 45 0 c43 0 45 -2 85 -60 47
-70 63 -80 124 -80 46 0 46 0 46 34 0 29 -4 34 -28 39 -19 4 -38 20 -54 45
l-26 39 30 18 c31 18 67 84 68 122 0 44 -31 102 -69 125 -32 21 -51 23 -178
26 l-143 4 0 -226z m264 113 c32 -25 33 -55 4 -86 -19 -20 -31 -23 -95 -23
l-73 0 0 65 0 65 69 0 c54 0 74 -4 95 -21z"/>
<path d="M7750 375 l0 -225 45 0 44 0 3 143 3 142 64 -94 63 -93 62 93 61 94
3 -142 3 -143 49 0 50 0 0 225 0 225 -54 0 -54 0 -48 -77 c-26 -43 -53 -86
-60 -96 -11 -16 -18 -8 -70 77 l-59 95 -52 1 -53 0 0 -225z"/>
<path d="M8471 582 c-37 -20 -71 -73 -71 -110 0 -69 41 -109 144 -139 66 -19
96 -39 96 -63 0 -45 -82 -53 -154 -15 l-47 25 -24 -28 c-13 -15 -25 -32 -25
-39 0 -6 25 -24 57 -39 69 -34 168 -39 221 -11 41 22 72 72 72 115 0 71 -46
114 -150 142 -59 15 -90 36 -90 60 0 42 60 51 130 19 l45 -20 22 28 c13 15 23
33 23 39 0 6 -22 21 -49 33 -63 27 -153 28 -200 3z"/>
</g>
</svg>
